<svg xmlns="http://www.w3.org/2000/svg" viewBox="0 0 713.6 109.1"><defs><style>.cls-1{fill:#fff;}</style></defs><title>baise</title><g id="图层_2" data-name="图层 2"><g id="图层_1-2" data-name="图层 1"><path class="cls-1" d="M467.5,42.2a73.7,73.7,0,0,0,14.9-3.1l-.7,8.6a110.4,110.4,0,0,1-24.6,5.5l4.4-49.9h14.2a42.7,42.7,0,0,0,11.5-1.6l-.7,7.8a50.4,50.4,0,0,1-11,1.3h-5.3l-1,11.3h14.7l-.7,7.7H468.6Zm36.9-.5L507,11.6h-9.5l-4.2,48h-9.4L488.7,4h25.4c2.6,0,2.6,1.4,2.5,2.7l-3.2,36.1c-.3,3.8-1.1,8-7.2,8H497l.6-7.2h4.2C503.4,43.6,504.2,43.2,504.4,41.7Z"/><path class="cls-1" d="M523.1,17.9l.6-7.2c6-1.5,13.3-6,15.9-10.2h11.1L549,2.9h24.4l-.6,6.7a12.9,12.9,0,0,0-2.8,2.3h7.4c2.4,0,2.5,1.3,2.4,2.7l-.6,6.5c-.5,5.5-3.5,7.2-9.2,7.2H556.3c2.2,2.4,2.6,4.3,2.2,9.5L557.4,51c-.4,5.1-3.3,8.5-9.9,8.5h-7.7l.5-6.2h4.7q3.1,0,3.1-3.1c-7,3.1-17,5.3-28.4,7.4l.6-6.9c11.1-2.1,19.9-3.9,28.5-8.6V40.5c-7.6,3.8-17.6,6.6-28.4,8.3l.6-7.2c10.2-2.1,19.8-4.1,26.8-8.4,0-.5-.5-.9-.8-1-4.7,2.4-13.9,5.8-25.8,7.7l.7-7.6c6.5-1.2,11.6-2.3,15.4-4H524.8l1-11a3,3,0,0,1-1.3.3Zm11.7.3-.3,4h10.8a37.8,37.8,0,0,0,2.7-4Zm26.3-8.5H543.2l-3.1,2.3h18.4Zm10.1,8.5H559.3c-.2.3-2,3.5-2.4,4h11.3a2.5,2.5,0,0,0,2.8-2.6Zm-2,19.3c.3,5.9,3.8,9.9,9.2,11.7l-.8,9C567.1,56,560.5,47.6,560,37.4l.6-6.7h8.3a21.4,21.4,0,0,0,8.7-1.3l-.6,6.7a23.3,23.3,0,0,1-7.1,1.3Z"/><path class="cls-1" d="M334.1,24.6h9.6l.2-2.2h-9.6l.5-5.7h9.6l.3-3.1h9.8l-.3,3.1h10.1l.3-3.1h9.8l-.3,3.1h9.8l-.5,5.7h-9.8l-.2,2.2h9.8l-.5,5.7h-9.8l-.2,2.1h14l-.5,6.2H374.2c2.9,3.4,7.7,5.6,12.2,6.3l-.6,7.4a37.9,37.9,0,0,1-13.3-4.9l-.2,2.6H361.5l-.2,2.8h19.6l-.6,6.4H331l.6-6.4h19.3l.2-2.8H340.6l.2-2.6a48.9,48.9,0,0,1-14.2,4.9l.6-7.4c5.6-1.5,10.6-3.5,13.3-6.3H328.4l.5-6.2h14l.2-2.1h-9.6ZM388.9,7.2l-.7,8H377.7l.3-3.3H341.2l-.3,3.3H330.5l.9-10.1h22.5l.2-2.8h13.2l-.2,2.8h20.3C389.2,5.1,389,6.6,388.9,7.2ZM352,38.6a35.5,35.5,0,0,1-5.7,5.4h5.3l.3-3.1h10.3L362,44h5.6a27.2,27.2,0,0,1-4.7-5.4Zm1.6-16.2-.2,2.2h10.1l.2-2.2Zm-.7,7.9-.2,2.1h10.1l.2-2.1Z"/><path class="cls-1" d="M399.6,2.5h9.8a110.1,110.1,0,0,0,2.6,11.9h-9.8A72.1,72.1,0,0,1,399.6,2.5Z"/><path class="cls-1" d="M446.7,14.1h-9.8a127.3,127.3,0,0,0,4.7-11.9h9.8A83.4,83.4,0,0,1,446.7,14.1Z"/><path class="cls-1" d="M442.2,23.9h-37l-3.1,35.2h-9l3.7-42.7h22.5L420.7.9h10l-1.4,15.5h19.9c2.6,0,2.2,2.1,2.1,2.7l-3.2,36.4a3.3,3.3,0,0,1-3.2,3.3H431.9l.6-6.7h5.3c1.9,0,1.9-.2,2.1-2.2Zm-4.8,3.6-1.5,17.6c-.2,2.6-.6,4.5-4.4,4.5H407.6l1.9-22.1ZM417,34.8l-.7,7.6h11.5l.7-7.6Z"/><g id="_编组_" data-name="&lt;编组&gt;"><g id="_编组_2" data-name="&lt;编组&gt;"><polygon id="_路径_" data-name="&lt;路径&gt;" class="cls-1" points="607.1 2.5 594 1.1 593.3 9.1 606.4 10.5 607.1 2.5"/><path id="_路径_2" data-name="&lt;路径&gt;" class="cls-1" d="M606.3,12.3l-13.6,4.2-.8,8.8,13.7-4.6Z"/><path id="_复合路径_" data-name="&lt;复合路径&gt;" class="cls-1" d="M646.6,19.1c-11-1.5-13.6-7.8-14.2-9.7V8.8h6.8l-.4,4.2H647l.4-4.4h0l.4-5a1.3,1.3,0,0,0-1.3-1.4H623.8a10.5,10.5,0,0,0,1-2.2h-8.1a19.5,19.5,0,0,1-7.3,7.8l-.7,8.2A36.9,36.9,0,0,0,619,8.8h5.4c-.9,2.9-3.3,8.2-15.2,10.7l-.6,6.6H590.1l-.6,6.7h6.8L591.4,56a1.3,1.3,0,0,0,1.3,1.6l31.7-.8.6-6.6-22.9.6,1.8-9.2h28.5l-.8,9.3c-.2,2.1-.6,6.8,4.8,6.8h8.7l.6-6.3h-3.5c-.6,0-1.3.1-1.2-1.5l1.3-14.7h-37l.5-2.4h41.6l.6-6.7h-1.9ZM628,17.2c3.2,5.6,11.6,8.1,16.2,8.9H610.3C614.6,25.3,622.9,23.5,628,17.2Z"/><path id="_复合路径_2" data-name="&lt;复合路径&gt;" class="cls-1" d="M656.8,11.7h6.4c-.7,2.6-2.4,6.7-8.9,15.6l-1.1,12.1a.3.3,0,0,0,.6.3,41.1,41.1,0,0,0,4.2-4.6l-1.9,21.6h19V55.5l.5-5.8L677.6,29l.5-6.3V21.6H667.1a59.6,59.6,0,0,0,4.7-10h8.3l.7-8.3H657.5Zm11.7,37.6h-4.4l1.7-19.7h4.4Z"/><path id="_路径_3" data-name="&lt;路径&gt;" class="cls-1" d="M712.9,13.1l.7-8H700.5L701.8.5h-9l-1.3,4.7h-8.2l-.7,8h6.6l-1.5,5.1h-5.6l-.7,8h4L683.8,32l-.7,7.8h16L690.1,48l-8.9-1.3-.7,7.6a214.3,214.3,0,0,1,26.3,4.4l.7-7.8-7.8-1.5,10.2-9.4v-.8l.6-7.3H693l1.6-5.9h17.2l.7-8H696.8l1.4-5.1Z"/><path id="_路径_4" data-name="&lt;路径&gt;" class="cls-1" d="M609.6,48.4c1.3.1,9.8.5,16.2,1.4l.5-6.1a119.9,119.9,0,0,0-16.2-1.4Z"/></g></g><path class="cls-1" d="M588.8,4.6a4.2,4.2,0,0,1-.3,1.7,3.7,3.7,0,0,1-2.2,2.1l-1.5.3-1.5-.3a3.7,3.7,0,0,1-2.2-2.1,4.2,4.2,0,0,1-.3-1.7,4.2,4.2,0,0,1,.3-1.7A3.7,3.7,0,0,1,583.2.8l1.5-.3,1.5.3a3.7,3.7,0,0,1,2.2,2.1A4.2,4.2,0,0,1,588.8,4.6Zm-.9,0a3.7,3.7,0,0,0-.2-1.3,3.1,3.1,0,0,0-.7-1,2.8,2.8,0,0,0-1-.7l-1.3-.2-1.3.2a2.8,2.8,0,0,0-1,.7,3.1,3.1,0,0,0-.7,1,3.7,3.7,0,0,0-.2,1.3,3.7,3.7,0,0,0,.2,1.3,3.1,3.1,0,0,0,.7,1,2.8,2.8,0,0,0,1,.7l1.3.2,1.3-.2a2.8,2.8,0,0,0,1-.7,3.1,3.1,0,0,0,.7-1A3.7,3.7,0,0,0,587.9,4.6Zm-2,2.2-.6-.9-.6-.7h-.8V6.8h-.8V2.5h1.3a2.8,2.8,0,0,1,1.5.4,1.2,1.2,0,0,1,.5,1.1,1.2,1.2,0,0,1-.2.7l-.7.5.3.3.3.4.3.5.3.5Zm-2-2.3h1.3a.6.6,0,0,0,.4-.6.6.6,0,0,0-.3-.6l-.8-.2h-.5Z"/><path class="cls-1" d="M169.4,109l.5-6.2-1.2.9-.7-1.2q0,1,.1,2.7a38.8,38.8,0,0,0-4.4,3.6l-1.4-2.2a2.9,2.9,0,0,0,.8-1.9l.7-7.6h-1.9l.3-2.9h5l-.8,9.1,1.5-1.2-.6-.9a21.6,21.6,0,0,0,4.7-3.7h-3.9l.2-2.6h5.8a22,22,0,0,0,1.5-2.6l2.6,1-.9,1.6h7.2l-.2,2.6h-8.8l-1.7,2h9.3L182,109H179v-1.2h-6.5V109Zm-3.7-22.1q1.4,2,2.6,4.1l-2.8,1.6a35.7,35.7,0,0,0-2.3-4.3Zm6.1-.3h3l-.2,2.4h4.4l.2-2.4h3l-.2,2.4h2.8l-.2,2.6h-2.8l-.2,2.3h-3l.2-2.3h-4.4l-.2,2.3h-3l.2-2.3h-2.8l.2-2.6h2.8Zm7.8,15.4h-6.5l-.3,3.2h6.5Z"/><path class="cls-1" d="M222,91.9h3.4a54,54,0,0,1-1.4,9.5q4.4,2.1,8.7,4.7l-2.2,2.8q-4.1-2.6-7.9-4.8-2.5,3.5-9.2,4.9a32.7,32.7,0,0,0-2.1-2.9q7.7-1.4,9.3-5.1Q221.3,99.6,222,91.9Zm-8,11.1,1.4-15.5h17.1l-1.4,15.5h-3.3l1.1-12.5H218.4l-1.1,12.5Z"/><path class="cls-1" d="M265.3,96l2.7,1.3a92.4,92.4,0,0,1-6.4,9.2l-2.3-1.8A67.9,67.9,0,0,0,265.3,96Zm.1-9.4,3.2.4-1,2h14.6L282,92l-2.8,4.4-2.6-1.3,2-3.1H265.9a36.8,36.8,0,0,1-4.2,5.4,22.5,22.5,0,0,0-1.8-2.5A30.1,30.1,0,0,0,265.4,86.6Zm4.3,6.3h3.4l-1,11.7a5.1,5.1,0,0,1-.9,2.7,2.9,2.9,0,0,1-1.8,1.2,32.6,32.6,0,0,1-4.6.2,28.4,28.4,0,0,0-.5-3.3l3,.2q1.4,0,1.5-1.6Zm6.6,3.2q2.8,4.4,5.1,8.5l-3.1,1.7q-2.3-4.7-4.6-8.7Z"/><path class="cls-1" d="M330.9,88.6l-1,10.2q-.5,4.8-.7,6.1a5.2,5.2,0,0,1-.9,2.2,3.5,3.5,0,0,1-1.7,1.3,24.8,24.8,0,0,1-5.7.4q-.1-1.2-.5-2.7h4.1a1.7,1.7,0,0,0,1.8-1.2q.4-1.2,1.5-13.8h-8.3q-1,1.5-2.3,3.1l-1.6-1.3-.7,2.4a12.5,12.5,0,0,1,1,6q-.3,3.8-3.3,3.8h-.9q-.1-1.5-.2-2.6l-.6,6.3h-2.7L310,87.7h6.7l-.2,2-.7,2.4a28.6,28.6,0,0,0,3.6-5.5l2.4.6-.7,1.4Zm-18.6,7.1,1.5-5.4h-1.4l-1.1,12.1h.8q.9,0,1.1-1.2A11.1,11.1,0,0,0,312.3,95.8Zm4.6,4.3H319l-.2,2.7h1.2l.3-3.4h-4l.2-2.2h4l.2-1.8h-.7l-1.1,1.5-1.8-1a25.1,25.1,0,0,0,2.8-4l2,.2-.6,1.1h5.1l-.2,2.2h-2.9l-.2,1.8h3.6l-.2,2.2h-3.6l-.3,3.4h1.2l.2-2.8h2l-.4,5h-9Z"/><path class="cls-1" d="M357.2,97.2h21.5l-.2,2.3H363.2l-.3,1.1h11.9l-.6,4.6q-.1,1,.7,1h.3q.8,0,1-.9t.4-2.3l2.3.8a24.4,24.4,0,0,1-.9,3.3,2.8,2.8,0,0,1-3,1.7h-1.1q-3.3,0-2.8-3.3l.4-2.7h-7.2l5.8,1.2-.8,1.8h1a14.9,14.9,0,0,0-.5,2.3l-8.7.6a14.1,14.1,0,0,0-2.9.5l-.8-2.3a2.9,2.9,0,0,0,1.4-2l1.4-5.1H357Zm1-.2-1.1-2.9q3.6-1.7,5.4-2.8l1.1,2.7Zm-.2-8.2,2-2.2,3.4,2.4-2.2,2.4A30.8,30.8,0,0,0,358.1,88.9Zm5.1,15.6.9-1.8h-1.7l-.9,3.3,7-.3Zm16.4-16.4-.2,2-1.7,2.6-2.3-.8.8-1.4h-3.3l-.3.8q1.8,2.8,7,3.2a25.9,25.9,0,0,0-1.5,2.6q-5.1-.7-6.9-3.5-2.4,3.1-7.4,3.5l-1.3-2.4q6.2-.7,7.3-4.3h-2.5a21.2,21.2,0,0,1-2,2.4L363,91.4a15.1,15.1,0,0,0,3.6-4.7l3.1.2-.7,1.3Z"/><path class="cls-1" d="M416.1,96.1h3.1l-.2,2.2h8.5l-.2,2.6h-7.1a17,17,0,0,0,8,4.2q-1.1,1.7-1.9,3.1a18,18,0,0,1-7.7-5.5l-.6,6.4H415l.5-6.2a28.6,28.6,0,0,1-8.6,5.4,25.5,25.5,0,0,0-1.3-2.9,26.1,26.1,0,0,0,8.6-4.5h-7l.2-2.6h8.4Zm-9.2,1.4.4-4.3h21.2l-.4,4.3h-3l.2-1.8H410.1l-.2,1.8Zm1.4-8.8H413l.2-1.9h3.1l-.2,1.9h4.4l.2-1.9h3.1l-.2,1.9h4.8l-.2,2.5h-4.8v1.3h-3.1V91.2h-4.4v1.3h-3.1V91.2h-4.7Z"/><path class="cls-1" d="M455.4,90.3h4.2L458.3,88l2.5-1.4,1.9,3.1-1.1.6h4.2a29.7,29.7,0,0,0-1.2-2.9l2.6-1q.9,1.7,1.5,3.2l-1.7.6h2.8q1.6-1.8,3-3.8l2.6,1.4-2.3,2.4h4.1l-.2,2.2h-5.3a15.3,15.3,0,0,0,5.4,3.1l-1.9,2.6a16.4,16.4,0,0,1-2.6-1.5H459l-3.1,1.8a25.3,25.3,0,0,0-1.4-2.5,21,21,0,0,0,6-3.4h-5.2Zm.9,18.8.5-6h16.7l-.5,6H470v-.9H459.3v.9Zm1.1-8.7h16.2l-.2,1.7H457.2Zm.2-2.7h16.2l-.2,1.7H457.4Zm12.8,7.2H459.6v1.6h10.8Zm-3.1-11.6q.3.9.5,1.8h2.7a18.8,18.8,0,0,1-2.1-2.4h-4.5a23.8,23.8,0,0,1-2.5,2.4h3.3l-.5-1.6Z"/><path class="cls-1" d="M521.4,94.4l.5-5.7h3.2l-.8,8.7h-7.5l-.7,7.5h5.2l.5-5.5H525l-.8,9.6H521v-1.1H504.2l.7-8.5h3.2l-.5,5.5h5.2l.7-7.5h-7.5l.8-8.7h3.2l-.5,5.7h4.3l.7-7.6h3.4l-.7,7.6Z"/><path class="cls-1" d="M559.1,107.5h-3.2v1.1h-3.1l.9-10.6H563l-.9,10.6H559Zm-2.4-19.9h16.3l-.8,8.6H555.9Zm-.5,17.2h3.2l.4-4h-3.2Zm13.2-14.3h-9.6l-.3,2.9h9.6ZM567,107.5v1.1h-3.1l.9-10.6h9.4l-.9,10.6h-3.1v-1.1Zm3.4-2.8.4-4h-3.2l-.4,4Z"/><path class="cls-1" d="M32.5,48.1q-8.6,0-13.7-4.8a14.1,14.1,0,0,1-4.5-12.1A16.7,16.7,0,0,1,21,19.1a23.3,23.3,0,0,1,14.8-4.7A35.1,35.1,0,0,1,52.5,19H53a1.6,1.6,0,0,0,1.5-1.4l.9-9.9Q47.7,2.8,35.8,2.8,21,2.8,11.1,11.1T.1,31.4q-1,11.9,7,20t22.7,8.1a48.3,48.3,0,0,0,21.3-5h.3a1.6,1.6,0,0,0,.7-1.2l1-11.2a86.7,86.7,0,0,1-12.2,5A31,31,0,0,1,32.5,48.1Z"/><path class="cls-1" d="M80.2,35.4H104a1.6,1.6,0,0,0,1.5-1.4l.8-8.7H81.1l1-11.6h25a1.6,1.6,0,0,0,1.5-1.4l.8-8.7H69.2L64.4,58.8h39.3a1.6,1.6,0,0,0,1.5-1.4l.8-8.7H79Z"/><path class="cls-1" d="M154.1,28.4a76.8,76.8,0,0,0-9.4-4.2c-4-1.5-6.4-2.7-7.4-3.7a3.7,3.7,0,0,1-1.3-3,4.2,4.2,0,0,1,2.5-3.3,12.6,12.6,0,0,1,6-1.2q5.9,0,15.2,4.1h.6a1.6,1.6,0,0,0,1.5-1.4l.8-8.6a44.5,44.5,0,0,0-18.3-4.3q-9.6,0-15.7,4.4a15.2,15.2,0,0,0-6.7,11.5,13.8,13.8,0,0,0,1.8,9,16.2,16.2,0,0,0,5.8,5.4,71.7,71.7,0,0,0,9.4,4.1c4,1.5,6.5,2.7,7.5,3.8a4.1,4.1,0,0,1,1.3,3.3q-.4,5.1-8.6,5.1a23,23,0,0,1-8.9-1.7,48,48,0,0,1-9.3-5.4l-1,11.1a1.3,1.3,0,0,0,.5,1.2h.3a38,38,0,0,0,18.6,4.9q9.5,0,15.8-4.6a16.2,16.2,0,0,0,6.9-12.2,13.4,13.4,0,0,0-1.9-8.9A16.7,16.7,0,0,0,154.1,28.4Z"/><path class="cls-1" d="M192.3,3.5,165.1,58.8h13.6a1.6,1.6,0,0,0,1.4-.8h0l4.6-10h24.8l3.3,10V58a1.3,1.3,0,0,0,1.2.8h13.9L208.2,3.5Zm-3,34.7,10-21.5,7.1,21.5Z"/><path class="cls-1" d="M286,3.5A1.6,1.6,0,0,0,284.5,5l-2.8,32.4L255.1,3.5H242.5l-4.8,55.3H250a1.6,1.6,0,0,0,1.5-1.4l3-34,27.4,35.4h11.6l4.8-55.3Z"/></g></g></svg>