<?xml version="1.0" standalone="no"?><!DOCTYPE svg PUBLIC "-//W3C//DTD SVG 1.1//EN" "http://www.w3.org/Graphics/SVG/1.1/DTD/svg11.dtd"><svg t="1568102514170" class="icon" viewBox="0 0 1024 1024" version="1.1" xmlns="http://www.w3.org/2000/svg" p-id="4538" xmlns:xlink="http://www.w3.org/1999/xlink" width="200" height="200"><defs><style type="text/css"></style></defs><path d="M41.28704 308.544l81.792-76.8 49.152 46.08-81.856 76.8 49.088 46.08 81.856-76.8 49.088 46.08-81.856 76.8 16.96 40.064L460.61504 234.24 286.79104 47.36C260.10304 22.4 206.66304 30.4 179.91104 55.488l-163.648 153.6c-26.752 25.088-18.112 59.84 8.576 84.928l16.384 14.528z m-16.384 633.92c-6.016 16.96 10.368 32.32 28.416 26.688l298.88-93.76-229.12-215.104-98.176 282.24zM996.55104 272.192c24.96-23.488 24.96-59.84 0-80.896L853.57504 57.088c-24.96-23.424-63.744-23.424-86.144 0L663.11104 154.944l229.12 215.04 104.32-97.792zM630.47104 185.6L155.84704 631.168l229.12 215.04 474.624-445.44L630.47104 185.6z m376.448 537.664l-212.8-199.68-261.824 245.76 49.088 46.08 81.792-76.8 49.152 46.08-81.92 76.8 49.152 46.144 81.856-76.8 49.088 46.08-81.856 76.8 16.384 15.36c26.688 25.088 63.744 32.384 90.432 7.296l163.712-153.6c25.792-25.92 34.432-74.432 7.68-99.52z" fill="#c6ba9b" p-id="4539"></path></svg>