<?xml version="1.0" standalone="no"?><!DOCTYPE svg PUBLIC "-//W3C//DTD SVG 1.1//EN" "http://www.w3.org/Graphics/SVG/1.1/DTD/svg11.dtd"><svg t="1568102496069" class="icon" viewBox="0 0 1024 1024" version="1.1" xmlns="http://www.w3.org/2000/svg" p-id="3755" xmlns:xlink="http://www.w3.org/1999/xlink" width="200" height="200"><defs><style type="text/css"></style></defs><path d="M511.998 1019.833S131.126 595.387 131.126 385.04c0-210.328 170.529-380.874 380.872-380.874 210.345 0 380.876 170.546 380.876 380.874 0 210.346-380.876 634.793-380.876 634.793z m0-888.709c-140.223 0-253.916 113.693-253.916 253.917 0 140.244 113.693 253.918 253.916 253.918 140.225 0 253.915-113.674 253.915-253.918 0-140.226-113.69-253.917-253.915-253.917z m0 380.874c-70.12 0-126.956-56.838-126.956-126.957 0-70.12 56.836-126.958 126.956-126.958s126.96 56.837 126.96 126.958c0 70.12-56.84 126.957-126.96 126.957z" p-id="3756" fill="#c6ba9b"></path></svg>